<?xml version="1.0" encoding="UTF-8" standalone="no"?>
<!-- Copyright (c) 2020 OSRAM -->
<svg xmlns:svg="http://www.w3.org/2000/svg" xmlns="http://www.w3.org/2000/svg" version="1.0" width="7460" height="1800">
<path d="M 900,1680 C 1340,1680 1630,1330 1620,900 C 1640,440 1320,120 900,120 C 480,120 170,440 180,900 C 170,1350 460,1700 900,1680 Z M 900,430 C 1160,420 1260,660 1260,900 C 1250,1120 1150,1360 900,1360 C 650,1360 530,1130 530,900 C 530,670 640,420 900,430" style="fill: #FE5000; fill-rule: evenodd; stroke: none;"/>
<path d="M 2050,1140 C 2040,1290 2190,1380 2330,1370 C 2440,1370 2560,1350 2580,1220 C 2610,940 1730,1140 1720,570 C 1720,270 2020,100 2320,110 C 2730,120 2900,350 2900,620 L 2560,620 C 2560,620 2590,420 2310,410 C 2200,400 2090,450 2080,540 C 2040,800 2910,610 2920,1190 C 2920,1480 2650,1670 2320,1670 C 1670,1660 1700,1180 1700,1140 L 2050,1140" style="fill: #FE5000; fill-rule: evenodd; stroke: none;"/>
<path d="M 3630,1140 L 3410,1140 L 3410,1610 L 3070,1610 L 3070,150 L 3820,150 C 4090,150 4300,380 4280,660 C 4270,870 4180,1030 3980,1120 L 4230,1610 L 3850,1610 L 3630,1140 Z M 3410,460 L 3760,460 C 3860,460 3930,550 3930,650 C 3940,740 3870,850 3770,850 L 3410,850 L 3410,460" style="fill: #FE5000; fill-rule: evenodd; stroke: none;"/>
<path d="M 5220,150 L 5750,1610 L 5380,1610 L 5300,1360 L 4720,1360 L 4630,1610 L 4260,1610 L 4800,150 L 5220,150 Z M 5010,520 L 4820,1050 L 5190,1050 L 5010,510 L 5010,520" style="fill: #FE5000; fill-rule: evenodd; stroke: none;"/>
<path d="M 6910,790 L 6910,1610 L 7260,1610 L 7260,150 L 6900,150 L 6530,750 L 6190,150 L 5810,150 L 5810,1610 L 6180,1610 L 6180,820 L 6540,1400 L 6910,790" style="fill: #FE5000; fill-rule: evenodd; stroke: none;"/>
</svg>
